<svg width="40" height="40" viewBox="0 0 40 40" fill="none" xmlns="http://www.w3.org/2000/svg">
<path d="M36.6668 21.6667H33.3335V23.3333H36.6668V21.6667Z" fill="#22C55E"/>
<path d="M38.3332 18.3333H36.6665V21.6667H38.3332V18.3333Z" fill="#22C55E"/>
<path d="M36.6668 16.6667H33.3335V18.3333H36.6668V16.6667Z" fill="#22C55E"/>
<path d="M33.3332 18.3333H31.6665V21.6667H33.3332V18.3333Z" fill="#22C55E"/>
<path d="M31.6668 31.6667H28.3335V33.3333H31.6668V31.6667Z" fill="#22C55E"/>
<path d="M33.3332 28.3333H31.6665V31.6667H33.3332V28.3333Z" fill="#22C55E"/>
<path d="M31.6668 26.6667H28.3335V28.3333H31.6668V26.6667Z" fill="#22C55E"/>
<path d="M28.3332 28.3333H26.6665V31.6667H28.3332V28.3333Z" fill="#22C55E"/>
<path d="M18.3332 33.3333H16.6665V36.6667H18.3332V33.3333Z" fill="#22C55E"/>
<path d="M21.6668 36.6667H18.3335V38.3333H21.6668V36.6667Z" fill="#22C55E"/>
<path d="M23.3332 33.3333H21.6665V36.6667H23.3332V33.3333Z" fill="#22C55E"/>
<path d="M21.6668 31.6667H18.3335V33.3333H21.6668V31.6667Z" fill="#22C55E"/>
<path d="M11.6668 31.6667H8.3335V33.3333H11.6668V31.6667Z" fill="#22C55E"/>
<path d="M23.3332 3.33334H21.6665V6.66668H23.3332V3.33334Z" fill="#22C55E"/>
<path d="M21.6668 6.66666H18.3335V8.33332H21.6668V6.66666Z" fill="#22C55E"/>
<path d="M21.6668 1.66666H18.3335V3.33332H21.6668V1.66666Z" fill="#22C55E"/>
<path d="M18.3332 3.33334H16.6665V6.66668H18.3332V3.33334Z" fill="#22C55E"/>
<path d="M13.3332 28.3333H11.6665V31.6667H13.3332V28.3333Z" fill="#22C55E"/>
<path d="M13.3332 8.33334H11.6665V11.6667H13.3332V8.33334Z" fill="#22C55E"/>
<path d="M11.6668 11.6667H8.3335V13.3333H11.6668V11.6667Z" fill="#22C55E"/>
<path d="M11.6668 26.6667H8.3335V28.3333H11.6668V26.6667Z" fill="#22C55E"/>
<path d="M11.6668 6.66666H8.3335V8.33332H11.6668V6.66666Z" fill="#22C55E"/>
<path d="M8.33317 28.3333H6.6665V31.6667H8.33317V28.3333Z" fill="#22C55E"/>
<path d="M8.33317 18.3333H6.6665V21.6667H8.33317V18.3333Z" fill="#22C55E"/>
<path d="M8.33317 8.33334H6.6665V11.6667H8.33317V8.33334Z" fill="#22C55E"/>
<path d="M6.66683 16.6667H3.3335V18.3333H6.66683V16.6667Z" fill="#22C55E"/>
<path d="M6.66683 21.6667H3.3335V23.3333H6.66683V21.6667Z" fill="#22C55E"/>
<path d="M3.33317 18.3333H1.6665V21.6667H3.33317V18.3333Z" fill="#22C55E"/>
</svg>
