<svg width="40" height="40" viewBox="0 0 40 40" fill="none" xmlns="http://www.w3.org/2000/svg">
<path d="M23.3334 6.66667V10H21.6667V11.6667H18.3334V10H16.6667V6.66667H18.3334V5H21.6667V6.66667H23.3334Z" fill="#16A34A"/>
<path d="M35 33.3334V31.6667H33.3334V16.6667H30V31.6667H26.6667V16.6667H23.3334V31.6667H16.6667V16.6667H13.3334V31.6667H10V16.6667H6.66669V31.6667H5.00002V33.3334H1.66669V36.6667H3.33335V38.3334H36.6667V36.6667H38.3334V33.3334H35ZM35 36.6667H5.00002V35H6.66669V33.3334H33.3334V35H35V36.6667Z" fill="#16A34A"/>
<path d="M36.6666 11.6667V13.3334H35V15H4.99998V13.3334H3.33331V11.6667H6.66665V13.3334H33.3333V11.6667H36.6666Z" fill="#16A34A"/>
<path d="M38.3334 8.33335V11.6667H36.6667V10H31.6667V8.33335H28.3334V6.66669H25V5.00002H21.6667V3.33335H18.3334V5.00002H15V6.66669H11.6667V8.33335H8.33335V10H3.33335V11.6667H1.66669V8.33335H6.66669V6.66669H10V5.00002H13.3334V3.33335H16.6667V1.66669H23.3334V3.33335H26.6667V5.00002H30V6.66669H33.3334V8.33335H38.3334Z" fill="#16A34A"/>
</svg>
