<svg width="21" height="20" viewBox="0 0 21 20" fill="none" xmlns="http://www.w3.org/2000/svg">
<g clip-path="url(#clip0_6_6746)">
<path d="M6.4758 17.6603L7.65431 18.8388L8.24356 18.2496L9.42207 19.4281L10.0113 18.8388L10.6006 19.4281L11.1898 18.8388L11.7791 19.4281L12.9576 18.2496L13.5469 18.8388L14.7254 17.6603L15.3146 18.2496L18.8502 14.714L18.2609 14.1248L19.4394 12.9463L18.8502 12.357L20.0287 11.1785L19.4394 10.5893L20.0287 10L19.4394 9.41074L20.0287 8.82149L18.8502 7.64298L19.4394 7.05372L18.2609 5.87521L18.8502 5.28595L15.3146 1.75042L14.7254 2.33968L13.5469 1.16117L12.9576 1.75042L11.7791 0.571912L11.1898 1.16117L10.6006 0.57191L10.0113 1.16117L9.42207 0.571912L8.24356 1.75042L7.65431 1.16117L6.4758 2.33968L5.88654 1.75042L2.35101 5.28596L2.94026 5.87521L1.76175 7.05372L2.35101 7.64298L1.1725 8.82149L1.76175 9.41075L1.1725 10L1.76175 10.5893L1.1725 11.1785L2.35101 12.357L1.76175 12.9463L2.94026 14.1248L2.35101 14.714L5.88654 18.2496L6.4758 17.6603ZM3.52952 13.5355L4.11877 12.9463L2.94026 11.7678L3.52952 11.1785L2.35101 10L3.52952 8.82149L2.94026 8.23223L4.11877 7.05372L3.52952 6.46447L7.06505 2.92893L7.65431 3.51819L8.83282 2.33968L9.42207 2.92893L10.6006 1.75042L11.7791 2.92893L12.3684 2.33968L13.5469 3.51819L14.1361 2.92893L17.6717 6.46447L17.0824 7.05372L18.2609 8.23223L17.6717 8.82149L18.8502 10L17.6717 11.1785L18.2609 11.7678L17.0824 12.9463L17.6717 13.5355L14.1361 17.0711L13.5469 16.4818L12.3684 17.6603L11.7791 17.0711L10.6006 18.2496L9.42207 17.0711L8.83282 17.6603L7.65431 16.4818L7.06505 17.0711L3.52952 13.5355Z" fill="#3B82F6"/>
<path d="M8.24356 13.5356L7.06505 12.357L7.65431 11.7678L7.06505 11.1785L7.65431 10.5893L7.06505 10L7.65431 9.41077L7.06505 8.82151L7.65431 8.23225L7.06505 7.643L7.65431 7.05374L10.0113 9.41077L13.5469 5.87523L14.7254 7.05374L11.1898 10.5893L13.5469 12.9463L12.9576 13.5356L12.3684 12.9463L11.7791 13.5356L11.1898 12.9463L10.6006 13.5356L10.0113 12.9463L9.42207 13.5356L8.83282 12.9463L8.24356 13.5356Z" fill="#3B82F6"/>
</g>
<defs>
<clipPath id="clip0_6_6746">
<rect width="20" height="20" fill="white" transform="translate(0.600586 20) rotate(-90)"/>
</clipPath>
</defs>
</svg>
