<svg width="10" height="14" viewBox="0 0 10 14" fill="none" xmlns="http://www.w3.org/2000/svg">
<path d="M5 0C5.13261 0 5.25979 0.0526784 5.35355 0.146447C5.44732 0.240215 5.5 0.367392 5.5 0.5V4H4.5V0.5C4.5 0.367392 4.55268 0.240215 4.64645 0.146447C4.74022 0.0526784 4.86739 0 5 0ZM4.5 4V7.79333L3.35333 6.64667C3.25855 6.55835 3.13319 6.51026 3.00365 6.51255C2.87412 6.51484 2.75053 6.56731 2.65892 6.65892C2.56731 6.75053 2.51484 6.87412 2.51255 7.00365C2.51026 7.13319 2.55835 7.25855 2.64667 7.35333L4.64667 9.35333C4.74042 9.44697 4.8675 9.49956 5 9.49956C5.1325 9.49956 5.25958 9.44697 5.35333 9.35333L7.35333 7.35333C7.40246 7.30756 7.44186 7.25236 7.46919 7.19103C7.49652 7.12969 7.51121 7.06348 7.51239 6.99635C7.51358 6.92921 7.50123 6.86253 7.47608 6.80027C7.45093 6.73801 7.4135 6.68145 7.36603 6.63398C7.31855 6.5865 7.26199 6.54907 7.19973 6.52392C7.13747 6.49877 7.07079 6.48642 7.00365 6.48761C6.93652 6.48879 6.87031 6.50348 6.80897 6.53081C6.74764 6.55814 6.69244 6.59754 6.64667 6.64667L5.5 7.79333V4H8C8.53043 4 9.03914 4.21071 9.41421 4.58579C9.78929 4.96086 10 5.46957 10 6V12C10 12.5304 9.78929 13.0391 9.41421 13.4142C9.03914 13.7893 8.53043 14 8 14H2C1.46957 14 0.960859 13.7893 0.585787 13.4142C0.210714 13.0391 0 12.5304 0 12V6C0 5.46957 0.210714 4.96086 0.585787 4.58579C0.960859 4.21071 1.46957 4 2 4H4.5Z" fill="#CB3068"/>
</svg>
