<svg width="40" height="40" viewBox="0 0 40 40" fill="none" xmlns="http://www.w3.org/2000/svg">
<g clip-path="url(#clip0_1007_2276)">
<path d="M36.6667 9.99998V8.33331H5V9.99998H3.33333V11.6666H1.66667V30H3.33333V31.6666H36.6667V30H38.3333V9.99998H36.6667ZM6.66667 28.3333H5V11.6666H6.66667V28.3333ZM35 28.3333H10V11.6666H35V28.3333Z" fill="#16A34A"/>
<path d="M31.6667 23.3333H23.3333V26.6666H31.6667V23.3333Z" fill="#16A34A"/>
<path d="M31.6667 18.3333H23.3333V21.6666H31.6667V18.3333Z" fill="#16A34A"/>
<path d="M31.6667 13.3333H23.3333V16.6666H31.6667V13.3333Z" fill="#16A34A"/>
<path d="M11.6667 13.3333V21.6666H21.6667V13.3333H11.6667ZM18.3333 18.3333H15V16.6666H18.3333V18.3333Z" fill="#16A34A"/>
<path d="M21.6667 23.3333H11.6667V26.6666H21.6667V23.3333Z" fill="#16A34A"/>
</g>
<defs>
<clipPath id="clip0_1007_2276">
<rect width="40" height="40" fill="white"/>
</clipPath>
</defs>
</svg>
