<svg width="20" height="21" viewBox="0 0 20 21" fill="none" xmlns="http://www.w3.org/2000/svg">
<g clip-path="url(#clip0_1007_2247)">
<path d="M12.2083 18.2916L10.7917 18.2916L10.7917 17.5833L10.0833 17.5833L10.0833 16.875L9.37499 16.875L9.37499 16.1666L8.66666 16.1666L8.66666 15.4583L7.95832 15.4583L7.95832 14.75L7.24999 14.75L7.24999 14.0416L6.54166 14.0416L6.54166 13.3333L5.83332 13.3333L5.83332 12.625L5.12499 12.625L5.12499 11.9166L4.41666 11.9166L4.41666 11.2083L3.70832 11.2083L3.70832 10.5L4.41666 10.5L4.41666 9.79165L5.12499 9.79165L5.12499 10.5L5.83332 10.5L5.83332 11.2083L6.54166 11.2083L6.54166 11.9166L7.24999 11.9166L7.24999 12.625L7.95832 12.625L7.95832 13.3333L8.66666 13.3333L8.66666 14.0416L9.37499 14.0416L9.37499 14.75L10.0833 14.75L10.0833 15.4583L10.7917 15.4583L10.7917 2.70831L12.2083 2.70831L12.2083 15.4583L12.9167 15.4583L12.9167 14.75L13.625 14.75L13.625 14.0416L14.3333 14.0416L14.3333 13.3333L15.0417 13.3333L15.0417 12.625L15.75 12.625L15.75 11.9166L16.4583 11.9166L16.4583 11.2083L17.1667 11.2083L17.1667 10.5L17.875 10.5L17.875 9.79165L18.5833 9.79165L18.5833 10.5L19.2917 10.5L19.2917 11.2083L18.5833 11.2083L18.5833 11.9166L17.875 11.9166L17.875 12.625L17.1667 12.625L17.1667 13.3333L16.4583 13.3333L16.4583 14.0416L15.75 14.0416L15.75 14.75L15.0417 14.75L15.0417 15.4583L14.3333 15.4583L14.3333 16.1666L13.625 16.1666L13.625 16.875L12.9167 16.875L12.9167 17.5833L12.2083 17.5833L12.2083 18.2916Z" fill="#16A34A"/>
</g>
<defs>
<clipPath id="clip0_1007_2247">
<rect width="17" height="17" fill="white" transform="translate(20 2) rotate(90)"/>
</clipPath>
</defs>
</svg>
