<svg width="11" height="15" viewBox="0 0 11 15" fill="none" xmlns="http://www.w3.org/2000/svg">
<path d="M5.55682 0.641226C5.65057 0.54759 5.77766 0.494995 5.91016 0.494995C6.04266 0.494995 6.16974 0.54759 6.26349 0.641226L8.26349 2.64129C8.35181 2.73608 8.39989 2.86144 8.39761 2.99098C8.39532 3.12052 8.34285 3.24411 8.25124 3.33573C8.15963 3.42734 8.03604 3.47981 7.9065 3.4821C7.77697 3.48438 7.65161 3.4363 7.55682 3.34798L6.41016 2.20128L6.41016 4.49468L5.41016 4.49468L5.41016 2.20128L4.26349 3.34798C4.16871 3.4363 4.04334 3.48438 3.91381 3.4821C3.78427 3.47981 3.66068 3.42734 3.56908 3.33573C3.47747 3.24411 3.42499 3.12052 3.42271 2.99098C3.42042 2.86144 3.4685 2.73608 3.55682 2.64129L5.55682 0.641226ZM5.41016 4.49468V9.49484C5.41016 9.62745 5.46283 9.75463 5.5566 9.8484C5.65037 9.94217 5.77755 9.99485 5.91016 9.99485C6.04276 9.99485 6.16994 9.94217 6.26371 9.8484C6.35748 9.75463 6.41016 9.62745 6.41016 9.49484V4.49468H8.91016C9.44059 4.49468 9.9493 4.7054 10.3244 5.08049C10.6994 5.45557 10.9102 5.96429 10.9102 6.49474L10.9102 12.4949C10.9102 13.0254 10.6994 13.5341 10.3244 13.9092C9.9493 14.2843 9.44059 14.495 8.91016 14.495L2.91016 14.495C2.37972 14.495 1.87102 14.2843 1.49594 13.9092C1.12087 13.5341 0.910156 13.0254 0.910156 12.4949L0.910156 6.49474C0.910156 5.96429 1.12087 5.45557 1.49594 5.08049C1.87102 4.7054 2.37972 4.49468 2.91016 4.49468H5.41016Z" fill="#57DE64"/>
</svg>
