<svg width="152" height="184" viewBox="0 0 152 184" fill="none" xmlns="http://www.w3.org/2000/svg">
<mask id="path-1-outside-1_1682_1937" maskUnits="userSpaceOnUse" x="0" y="0" width="152" height="184" fill="black">
<rect fill="white" width="152" height="184"/>
<path d="M150.568 19.6319C150.418 19.5404 120.868 1.35857 120.868 1.35857C120.562 1.16924 120.181 1.16924 119.872 1.35857L90.8539 19.1175L61.8863 1.14399C61.5803 0.954663 61.1993 0.951506 60.8903 1.13768C60.8903 1.13768 31.3167 18.9976 31.1727 19.0828C30.8667 19.2659 30.6657 19.5246 30.6627 19.8938L30.4857 55.1846L1.82114 72.7637C1.71614 72.7858 1.16115 73.1013 1.08315 73.2149C0.942155 73.5336 1.02315 74.3919 1.02315 74.3919V109.768C1.02315 110.14 1.21215 110.481 1.51815 110.667L30.4767 128.24C30.4887 128.265 30.5097 128.284 30.5247 128.309L30.3477 163.329C30.3477 163.701 30.5337 164.045 30.8367 164.231L59.8133 182.044C59.8493 182.094 60.2873 182.407 60.7343 182.388C61.2173 182.369 61.6643 181.978 61.7543 181.908L90.0289 164.96L119.146 182.858C119.299 182.953 119.473 183 119.644 183C119.815 183 120.019 182.921 120.133 182.864C127.813 178.942 149.773 165.023 149.773 165.023C150.079 164.84 150.271 164.496 150.271 164.127L150.451 128.338C150.472 128.003 150.292 127.448 149.989 127.259L120.463 108.941C120.463 108.941 119.776 108.749 119.47 108.935L90.4279 126.527L61.9193 108.84V74.7043L90.7939 57.406L119.596 74.9725C119.659 75.0419 119.731 75.1019 119.809 75.1492C119.962 75.2439 120.133 75.2881 120.304 75.2881C120.475 75.2881 120.643 75.2407 120.796 75.1492L150.436 57.2135C150.742 57.0274 150.931 56.6866 150.931 56.3142L151 20.3229C151 19.9506 150.874 19.8054 150.568 19.6193V19.6319ZM148.3 163.521L120.64 180.078L120.808 146.589L127.015 142.859L148.468 129.998L148.3 163.521ZM119.956 111.043L147.523 128.145L125.983 141.089L119.815 144.787L92.2578 127.823L119.956 111.043ZM91.3878 129.714L118.834 146.608L118.663 180.163L91.2168 163.291L91.3878 129.714ZM89.7889 55.6232L61.9943 72.2746L62.0723 56.7371L62.1623 38.8045L89.8519 22.1878L89.7889 55.6232ZM61.3793 3.23922L88.8109 20.2567L61.1483 36.8513L33.7407 19.9821L61.3793 3.23922ZM60.1883 38.7383L60.0653 63.0322L60.0203 72.0663L32.4627 55.1656L32.6307 21.7997L60.1883 38.7383ZM30.3477 125.766L3.00012 109.171V75.7929L30.3477 92.4317V125.766ZM4.04111 73.8113L31.3857 57.04L58.7843 73.8839L31.4727 90.4817L4.04111 73.8113ZM59.9423 75.8213V108.925L32.5947 125.492V92.4633L59.9423 75.8213ZM59.6123 179.516L32.3277 162.742L32.4957 129.398L59.7803 146.195L59.6123 179.516ZM89.1319 163.111L61.8593 179.46L62.0273 146.122L89.2999 129.733L89.1319 163.111ZM88.4419 127.716L60.9143 144.238L33.7047 127.489L61.1933 110.809L88.4419 127.716ZM119.32 72.4103L91.7688 55.6074L91.9368 22.3014L119.383 39.038L119.32 72.4103ZM120.373 37.0911L92.8608 20.2914L120.37 3.45695L147.913 20.4081L120.373 37.0911ZM148.957 55.721L121.294 72.4608L121.354 40.8619V38.9844L149.023 22.2099L148.957 55.721Z"/>
</mask>
<path d="M150.568 19.6319C150.418 19.5404 120.868 1.35857 120.868 1.35857C120.562 1.16924 120.181 1.16924 119.872 1.35857L90.8539 19.1175L61.8863 1.14399C61.5803 0.954663 61.1993 0.951506 60.8903 1.13768C60.8903 1.13768 31.3167 18.9976 31.1727 19.0828C30.8667 19.2659 30.6657 19.5246 30.6627 19.8938L30.4857 55.1846L1.82114 72.7637C1.71614 72.7858 1.16115 73.1013 1.08315 73.2149C0.942155 73.5336 1.02315 74.3919 1.02315 74.3919V109.768C1.02315 110.14 1.21215 110.481 1.51815 110.667L30.4767 128.24C30.4887 128.265 30.5097 128.284 30.5247 128.309L30.3477 163.329C30.3477 163.701 30.5337 164.045 30.8367 164.231L59.8133 182.044C59.8493 182.094 60.2873 182.407 60.7343 182.388C61.2173 182.369 61.6643 181.978 61.7543 181.908L90.0289 164.96L119.146 182.858C119.299 182.953 119.473 183 119.644 183C119.815 183 120.019 182.921 120.133 182.864C127.813 178.942 149.773 165.023 149.773 165.023C150.079 164.84 150.271 164.496 150.271 164.127L150.451 128.338C150.472 128.003 150.292 127.448 149.989 127.259L120.463 108.941C120.463 108.941 119.776 108.749 119.47 108.935L90.4279 126.527L61.9193 108.84V74.7043L90.7939 57.406L119.596 74.9725C119.659 75.0419 119.731 75.1019 119.809 75.1492C119.962 75.2439 120.133 75.2881 120.304 75.2881C120.475 75.2881 120.643 75.2407 120.796 75.1492L150.436 57.2135C150.742 57.0274 150.931 56.6866 150.931 56.3142L151 20.3229C151 19.9506 150.874 19.8054 150.568 19.6193V19.6319ZM148.3 163.521L120.64 180.078L120.808 146.589L127.015 142.859L148.468 129.998L148.3 163.521ZM119.956 111.043L147.523 128.145L125.983 141.089L119.815 144.787L92.2578 127.823L119.956 111.043ZM91.3878 129.714L118.834 146.608L118.663 180.163L91.2168 163.291L91.3878 129.714ZM89.7889 55.6232L61.9943 72.2746L62.0723 56.7371L62.1623 38.8045L89.8519 22.1878L89.7889 55.6232ZM61.3793 3.23922L88.8109 20.2567L61.1483 36.8513L33.7407 19.9821L61.3793 3.23922ZM60.1883 38.7383L60.0653 63.0322L60.0203 72.0663L32.4627 55.1656L32.6307 21.7997L60.1883 38.7383ZM30.3477 125.766L3.00012 109.171V75.7929L30.3477 92.4317V125.766ZM4.04111 73.8113L31.3857 57.04L58.7843 73.8839L31.4727 90.4817L4.04111 73.8113ZM59.9423 75.8213V108.925L32.5947 125.492V92.4633L59.9423 75.8213ZM59.6123 179.516L32.3277 162.742L32.4957 129.398L59.7803 146.195L59.6123 179.516ZM89.1319 163.111L61.8593 179.46L62.0273 146.122L89.2999 129.733L89.1319 163.111ZM88.4419 127.716L60.9143 144.238L33.7047 127.489L61.1933 110.809L88.4419 127.716ZM119.32 72.4103L91.7688 55.6074L91.9368 22.3014L119.383 39.038L119.32 72.4103ZM120.373 37.0911L92.8608 20.2914L120.37 3.45695L147.913 20.4081L120.373 37.0911ZM148.957 55.721L121.294 72.4608L121.354 40.8619V38.9844L149.023 22.2099L148.957 55.721Z" fill="white"/>
<path d="M150.568 19.6319C150.418 19.5404 120.868 1.35857 120.868 1.35857C120.562 1.16924 120.181 1.16924 119.872 1.35857L90.8539 19.1175L61.8863 1.14399C61.5803 0.954663 61.1993 0.951506 60.8903 1.13768C60.8903 1.13768 31.3167 18.9976 31.1727 19.0828C30.8667 19.2659 30.6657 19.5246 30.6627 19.8938L30.4857 55.1846L1.82114 72.7637C1.71614 72.7858 1.16115 73.1013 1.08315 73.2149C0.942155 73.5336 1.02315 74.3919 1.02315 74.3919V109.768C1.02315 110.14 1.21215 110.481 1.51815 110.667L30.4767 128.24C30.4887 128.265 30.5097 128.284 30.5247 128.309L30.3477 163.329C30.3477 163.701 30.5337 164.045 30.8367 164.231L59.8133 182.044C59.8493 182.094 60.2873 182.407 60.7343 182.388C61.2173 182.369 61.6643 181.978 61.7543 181.908L90.0289 164.96L119.146 182.858C119.299 182.953 119.473 183 119.644 183C119.815 183 120.019 182.921 120.133 182.864C127.813 178.942 149.773 165.023 149.773 165.023C150.079 164.84 150.271 164.496 150.271 164.127L150.451 128.338C150.472 128.003 150.292 127.448 149.989 127.259L120.463 108.941C120.463 108.941 119.776 108.749 119.47 108.935L90.4279 126.527L61.9193 108.84V74.7043L90.7939 57.406L119.596 74.9725C119.659 75.0419 119.731 75.1019 119.809 75.1492C119.962 75.2439 120.133 75.2881 120.304 75.2881C120.475 75.2881 120.643 75.2407 120.796 75.1492L150.436 57.2135C150.742 57.0274 150.931 56.6866 150.931 56.3142L151 20.3229C151 19.9506 150.874 19.8054 150.568 19.6193V19.6319ZM148.3 163.521L120.64 180.078L120.808 146.589L127.015 142.859L148.468 129.998L148.3 163.521ZM119.956 111.043L147.523 128.145L125.983 141.089L119.815 144.787L92.2578 127.823L119.956 111.043ZM91.3878 129.714L118.834 146.608L118.663 180.163L91.2168 163.291L91.3878 129.714ZM89.7889 55.6232L61.9943 72.2746L62.0723 56.7371L62.1623 38.8045L89.8519 22.1878L89.7889 55.6232ZM61.3793 3.23922L88.8109 20.2567L61.1483 36.8513L33.7407 19.9821L61.3793 3.23922ZM60.1883 38.7383L60.0653 63.0322L60.0203 72.0663L32.4627 55.1656L32.6307 21.7997L60.1883 38.7383ZM30.3477 125.766L3.00012 109.171V75.7929L30.3477 92.4317V125.766ZM4.04111 73.8113L31.3857 57.04L58.7843 73.8839L31.4727 90.4817L4.04111 73.8113ZM59.9423 75.8213V108.925L32.5947 125.492V92.4633L59.9423 75.8213ZM59.6123 179.516L32.3277 162.742L32.4957 129.398L59.7803 146.195L59.6123 179.516ZM89.1319 163.111L61.8593 179.46L62.0273 146.122L89.2999 129.733L89.1319 163.111ZM88.4419 127.716L60.9143 144.238L33.7047 127.489L61.1933 110.809L88.4419 127.716ZM119.32 72.4103L91.7688 55.6074L91.9368 22.3014L119.383 39.038L119.32 72.4103ZM120.373 37.0911L92.8608 20.2914L120.37 3.45695L147.913 20.4081L120.373 37.0911ZM148.957 55.721L121.294 72.4608L121.354 40.8619V38.9844L149.023 22.2099L148.957 55.721Z" stroke="white" mask="url(#path-1-outside-1_1682_1937)"/>
</svg>
