<svg width="37" height="38" viewBox="0 0 37 38" fill="none" xmlns="http://www.w3.org/2000/svg">
<path d="M33.9165 14.375V11.2917H32.3748V8.20835H30.8332V6.66669H29.2915V5.12502H26.2082V3.58335H23.1248V2.04169H13.8748V3.58335H10.7915V5.12502H7.70817V6.66669H6.1665V8.20835H4.62484V11.2917H3.08317V14.375H1.5415V25.1667H3.08317V26.7084H4.62484V29.7917H6.1665V31.3334H7.70817V32.875H10.7915V34.4167H13.8748V35.9584H23.1248V34.4167H26.2082V32.875H29.2915V31.3334H30.8332V29.7917H32.3748V26.7084H33.9165V23.625H35.4582V14.375H33.9165ZM32.3748 15.9167V22.0834H27.7498V15.9167H32.3748ZM24.6665 6.66669H26.2082V8.20835H29.2915V11.2917H30.8332V12.8334H26.2082V8.20835H24.6665V6.66669ZM21.5832 28.25V31.3334H20.0415V32.875H16.9582V31.3334H15.4165V28.25H13.8748V25.1667H23.1248V28.25H21.5832ZM24.6665 15.9167V22.0834H12.3332V15.9167H24.6665ZM13.8748 9.75002H15.4165V6.66669H16.9582V5.12502H20.0415V6.66669H21.5832V9.75002H23.1248V12.8334H13.8748V9.75002ZM6.1665 11.2917H7.70817V8.20835H10.7915V6.66669H12.3332V8.20835H10.7915V12.8334H6.1665V11.2917ZM4.62484 22.0834V15.9167H9.24984V22.0834H4.62484ZM7.70817 29.7917V26.7084H6.1665V25.1667H10.7915V29.7917H12.3332V31.3334H10.7915V29.7917H7.70817ZM29.2915 26.7084V29.7917H26.2082V31.3334H24.6665V29.7917H26.2082V25.1667H30.8332V26.7084H29.2915Z" fill="#22C55E"/>
</svg>
