<svg width="19" height="19" viewBox="0 0 19 19" fill="none" xmlns="http://www.w3.org/2000/svg">
<path d="M15.0415 14.25V13.4583H14.2498V12.6667H12.6665V11.875H6.33317V12.6667H4.74984V13.4583H3.95817V14.25H3.1665V16.625H3.95817V17.4167H15.0415V16.625H15.8332V14.25H15.0415ZM6.33317 14.25V13.4583H12.6665V14.25H14.2498V15.8333H4.74984V14.25H6.33317Z" fill="#22C55E"/>
<path d="M11.8752 5.54159V4.74992H11.0835V3.95825H7.91683V4.74992H7.12516V5.54159H6.3335V8.70825H7.12516V9.49992H7.91683V10.2916H11.0835V9.49992H11.8752V8.70825H12.6668V5.54159H11.8752ZM7.91683 8.70825V5.54159H11.0835V8.70825H7.91683Z" fill="#22C55E"/>
<path d="M5.5415 3.95841H6.33317V4.75008H5.5415V6.33341H3.95817V5.54175H3.1665V3.95841H3.95817V3.16675H5.5415V3.95841Z" fill="#22C55E"/>
<path d="M5.5415 9.5H6.33317V10.2917H1.58317V9.5H0.791504V7.91667H1.58317V7.125H5.5415V9.5Z" fill="#22C55E"/>
<path d="M13.4582 4.75008H12.6665V3.95841H13.4582V3.16675H15.0415V3.95841H15.8332V5.54175H15.0415V6.33341H13.4582V4.75008Z" fill="#22C55E"/>
<path d="M18.2082 7.91667V9.5H17.4165V10.2917H12.6665V9.5H13.4582V7.125H17.4165V7.91667H18.2082Z" fill="#22C55E"/>
</svg>
