<svg width="17" height="17" viewBox="0 0 17 17" fill="none" xmlns="http://www.w3.org/2000/svg">
<path d="M9.22727 16.5L7.77273 16.5L7.77273 15.7727L7.04545 15.7727L7.04545 15.0455L6.31818 15.0455L6.31818 14.3182L5.59091 14.3182L5.59091 13.5909L4.86364 13.5909L4.86364 12.8636L4.13636 12.8636L4.13636 12.1364L3.40909 12.1364L3.40909 11.4091L2.68182 11.4091L2.68182 10.6818L1.95454 10.6818L1.95454 9.95455L1.22727 9.95455L1.22727 9.22727L0.5 9.22727L0.5 8.5L1.22727 8.5L1.22727 7.77273L1.95454 7.77273L1.95454 8.5L2.68182 8.5L2.68182 9.22727L3.40909 9.22727L3.40909 9.95455L4.13636 9.95455L4.13636 10.6818L4.86364 10.6818L4.86364 11.4091L5.59091 11.4091L5.59091 12.1364L6.31818 12.1364L6.31818 12.8636L7.04545 12.8636L7.04545 13.5909L7.77273 13.5909L7.77273 0.5L9.22727 0.5L9.22727 13.5909L9.95454 13.5909L9.95454 12.8636L10.6818 12.8636L10.6818 12.1364L11.4091 12.1364L11.4091 11.4091L12.1364 11.4091L12.1364 10.6818L12.8636 10.6818L12.8636 9.95455L13.5909 9.95455L13.5909 9.22727L14.3182 9.22727L14.3182 8.5L15.0455 8.5L15.0455 7.77273L15.7727 7.77273L15.7727 8.5L16.5 8.5L16.5 9.22727L15.7727 9.22727L15.7727 9.95455L15.0455 9.95455L15.0455 10.6818L14.3182 10.6818L14.3182 11.4091L13.5909 11.4091L13.5909 12.1364L12.8636 12.1364L12.8636 12.8636L12.1364 12.8636L12.1364 13.5909L11.4091 13.5909L11.4091 14.3182L10.6818 14.3182L10.6818 15.0455L9.95454 15.0455L9.95454 15.7727L9.22727 15.7727L9.22727 16.5Z" fill="#22C55E"/>
</svg>
