<svg width="40" height="40" viewBox="0 0 40 40" fill="none" xmlns="http://www.w3.org/2000/svg">
<path d="M12.75 12.5H9.75V11H8.25V8H9.75V6.5H12.75V8H14.25V11H12.75V12.5Z" fill="#22C55E"/>
<path d="M9.75 18.5H11.25V23H9.75V24.5H5.25V23H3.75V18.5H5.25V17H9.75V18.5Z" fill="#22C55E"/>
<path d="M17.25 14H15.75V15.5H17.25V14Z" fill="#22C55E"/>
<path d="M26.25 24.5H24.75V26H26.25V24.5Z" fill="#22C55E"/>
<path d="M29.25 14H27.75V15.5H29.25V14Z" fill="#22C55E"/>
<path d="M15.75 12.5H14.25V14H15.75V12.5Z" fill="#22C55E"/>
<path d="M14.25 20H12.75V21.5H14.25V20Z" fill="#22C55E"/>
<path d="M26.25 23V18.5H24.75V17H23.25V15.5H18.75V17H17.25V18.5H15.75V23H17.25V24.5H18.75V26H23.25V24.5H24.75V23H26.25ZM18.75 23V18.5H23.25V23H18.75Z" fill="#22C55E"/>
<path d="M27.75 15.5H26.25V17H27.75V15.5Z" fill="#22C55E"/>
<path d="M27.75 26H26.25V27.5H27.75V26Z" fill="#22C55E"/>
<path d="M33.75 29H35.25V33.5H33.75V35H29.25V33.5H27.75V29H29.25V27.5H33.75V29Z" fill="#22C55E"/>
<path d="M35.25 9.5V12.5H33.75V14H30.75V12.5H29.25V9.5H30.75V8H33.75V9.5H35.25Z" fill="#22C55E"/>
</svg>
