<svg width="20" height="21" viewBox="0 0 20 21" fill="none" xmlns="http://www.w3.org/2000/svg">
<g clip-path="url(#clip0_1007_2259)">
<g clip-path="url(#clip1_1007_2259)">
<path d="M15.8626 3.36327L17.0899 4.59049L16.4763 5.20409L17.0899 5.8177L16.4763 6.43131L17.0899 7.04492L16.4763 7.65852L17.0899 8.27213L16.4763 8.88574L17.0899 9.49935L16.4763 10.113L17.0899 10.7266L16.4763 11.3402L17.0899 11.9538L16.4763 12.5674L17.0899 13.181L16.4763 13.7946L17.0899 14.4082L16.4763 15.0218L17.0899 15.6354L16.4763 16.249L17.0899 16.8626L16.4763 17.4762L15.8626 16.8626L15.249 17.4762L14.6354 16.8626L15.249 16.249L14.6354 15.6354L15.249 15.0218L14.6354 14.4082L15.249 13.7946L14.6354 13.181L15.249 12.5674L14.6354 11.9538L15.249 11.3402L14.6354 10.7266L15.249 10.113L14.6354 9.49935L15.249 8.88574L14.6354 8.27213L15.249 7.65852L14.6354 7.04492L3.5905 18.0899L2.36328 16.8626L13.4082 5.8177L12.7946 5.20409L12.181 5.8177L11.5674 5.20409L10.9538 5.8177L10.3402 5.20409L9.72657 5.8177L9.11297 5.20409L8.49936 5.8177L7.88575 5.20409L7.27214 5.8177L6.65853 5.20409L6.04493 5.8177L5.43132 5.20409L4.81771 5.8177L4.2041 5.20409L3.5905 5.8177L2.97689 5.20409L3.5905 4.59049L2.97689 3.97688L3.5905 3.36327L4.2041 3.97688L4.81771 3.36327L5.43132 3.97688L6.04493 3.36327L6.65853 3.97688L7.27214 3.36327L7.88575 3.97688L8.49936 3.36327L9.11296 3.97688L9.72657 3.36327L10.3402 3.97688L10.9538 3.36327L11.5674 3.97688L12.181 3.36327L12.7946 3.97688L13.4082 3.36327L14.0218 3.97688L14.6354 3.36327L15.249 3.97688L15.8626 3.36327Z" fill="#16A34A"/>
</g>
</g>
<defs>
<clipPath id="clip0_1007_2259">
<rect width="20" height="20" fill="white" transform="translate(0 0.5)"/>
</clipPath>
<clipPath id="clip1_1007_2259">
<rect width="20.8265" height="20.8265" fill="white" transform="translate(-5 10.7266) rotate(-45)"/>
</clipPath>
</defs>
</svg>
