<svg width="40" height="40" viewBox="0 0 40 40" fill="none" xmlns="http://www.w3.org/2000/svg">
<path d="M30.5 27V25.5H29V24H26V22.5H14V24H11V25.5H9.5V27H8V31.5H9.5V33H30.5V31.5H32V27H30.5ZM14 27V25.5H26V27H29V30H11V27H14Z" fill="#16A34A"/>
<path d="M24.5 10.5V9H23V7.5H17V9H15.5V10.5H14V16.5H15.5V18H17V19.5H23V18H24.5V16.5H26V10.5H24.5ZM17 16.5V10.5H23V16.5H17Z" fill="#16A34A"/>
<path d="M12.5 7.5H14V9H12.5V12H9.5V10.5H8V7.5H9.5V6H12.5V7.5Z" fill="#16A34A"/>
<path d="M12.5 18H14V19.5H5V18H3.5V15H5V13.5H12.5V18Z" fill="#16A34A"/>
<path d="M27.5 9H26V7.5H27.5V6H30.5V7.5H32V10.5H30.5V12H27.5V9Z" fill="#16A34A"/>
<path d="M36.5 15V18H35V19.5H26V18H27.5V13.5H35V15H36.5Z" fill="#16A34A"/>
</svg>
