<svg width="35" height="42" viewBox="0 0 35 42" fill="none" xmlns="http://www.w3.org/2000/svg">
<mask id="path-1-outside-1_1493_1846" maskUnits="userSpaceOnUse" x="0" y="0" width="35" height="42" fill="black">
<rect fill="white" width="35" height="42"/>
<path d="M33.905 5.09492C33.872 5.07481 27.3711 1.07881 27.3711 1.07881C27.3037 1.0372 27.2199 1.0372 27.1519 1.07881L20.7679 4.98188L14.395 1.03165C14.3277 0.990036 14.2438 0.989342 14.1759 1.03026C14.1759 1.03026 7.66968 4.95552 7.638 4.97425C7.57068 5.01447 7.52646 5.07134 7.5258 5.15248L7.48686 12.9087L1.18065 16.7722C1.15755 16.7771 1.03545 16.8464 1.01829 16.8714C0.987274 16.9415 1.00509 17.1301 1.00509 17.1301V24.905C1.00509 24.9869 1.04667 25.0618 1.11399 25.1027L7.48488 28.9648C7.48752 28.9704 7.49214 28.9745 7.49544 28.9801L7.4565 36.6767C7.4565 36.7585 7.49742 36.8341 7.56408 36.875L13.9389 40.7899C13.9468 40.801 14.0432 40.8696 14.1415 40.8655C14.2478 40.8613 14.3461 40.7753 14.3659 40.76L20.5864 37.0352L26.9922 40.9688C27.0259 40.9896 27.0642 41 27.1018 41C27.1394 41 27.1843 40.9827 27.2094 40.9702C28.8989 40.1081 33.7301 37.0491 33.7301 37.0491C33.7974 37.0088 33.8396 36.9333 33.8396 36.8521L33.8792 28.9863C33.8838 28.9128 33.8442 28.7908 33.7776 28.7491L27.282 24.7233C27.2146 24.6817 27.1308 24.681 27.0635 24.7219L20.6741 28.5883L14.4022 24.7011V17.1987L20.7547 13.3969L27.0912 17.2577C27.1051 17.273 27.1209 17.2861 27.1381 17.2965C27.1717 17.3173 27.2094 17.327 27.247 17.327C27.2846 17.327 27.3216 17.3166 27.3552 17.2965L33.8759 13.3546C33.9432 13.3137 33.9848 13.2388 33.9848 13.157L34 5.2468C34 5.16496 33.9723 5.13306 33.905 5.09214V5.09492ZM33.406 36.719L27.3209 40.3578L27.3579 32.9976L28.7234 32.1779L33.443 29.3511L33.4053 36.7183L33.406 36.719ZM27.1704 25.1852L33.2351 28.944L28.4963 31.7888L27.1394 32.6016L21.0767 28.8733L27.1711 25.1852H27.1704ZM20.8853 29.2887L26.9236 33.0018L26.886 40.3765L20.8477 36.6683L20.8853 29.2887ZM20.5336 13.0051L14.4187 16.6647L14.4359 13.2499L14.4557 9.30869L20.5474 5.65666L20.5336 13.0051ZM14.2834 1.49214L20.3184 5.23224L14.2326 8.8794L8.20295 5.1719L14.2834 1.49214ZM14.0214 9.29412L13.9944 14.6335L13.9845 16.619L7.92179 12.9045L7.95875 5.57136L14.0214 9.29481V9.29412ZM7.4565 28.4211L1.44003 24.774V17.438L7.4565 21.0949V28.4211ZM1.66904 17.0025L7.68486 13.3165L13.7126 17.0184L7.704 20.6663L1.66904 17.0032V17.0025ZM13.9673 17.4442V24.7199L7.95083 28.3608V21.1018L13.9673 17.4449V17.4442ZM13.8947 40.2344L7.8921 36.5477L7.92905 29.2194L13.9317 32.9109L13.8947 40.2344ZM20.389 36.6288L14.389 40.2219L14.426 32.895L20.426 29.2929L20.389 36.6288ZM20.2372 28.8497L14.1811 32.4809L8.19503 28.7998L14.2425 25.1339L20.2372 28.8497ZM27.0305 16.6946L20.9691 13.0016L21.0061 5.68163L27.0444 9.36L27.0305 16.6946ZM27.2622 8.93211L21.2094 5.23986L27.2615 1.53999L33.3209 5.26552L27.2622 8.9328V8.93211ZM33.5505 13.0266L27.4648 16.7057L27.478 9.76085V9.34822L33.5651 5.66152L33.5512 13.0266H33.5505Z"/>
</mask>
<path d="M33.905 5.09492C33.872 5.07481 27.3711 1.07881 27.3711 1.07881C27.3037 1.0372 27.2199 1.0372 27.1519 1.07881L20.7679 4.98188L14.395 1.03165C14.3277 0.990036 14.2438 0.989342 14.1759 1.03026C14.1759 1.03026 7.66968 4.95552 7.638 4.97425C7.57068 5.01447 7.52646 5.07134 7.5258 5.15248L7.48686 12.9087L1.18065 16.7722C1.15755 16.7771 1.03545 16.8464 1.01829 16.8714C0.987274 16.9415 1.00509 17.1301 1.00509 17.1301V24.905C1.00509 24.9869 1.04667 25.0618 1.11399 25.1027L7.48488 28.9648C7.48752 28.9704 7.49214 28.9745 7.49544 28.9801L7.4565 36.6767C7.4565 36.7585 7.49742 36.8341 7.56408 36.875L13.9389 40.7899C13.9468 40.801 14.0432 40.8696 14.1415 40.8655C14.2478 40.8613 14.3461 40.7753 14.3659 40.76L20.5864 37.0352L26.9922 40.9688C27.0259 40.9896 27.0642 41 27.1018 41C27.1394 41 27.1843 40.9827 27.2094 40.9702C28.8989 40.1081 33.7301 37.0491 33.7301 37.0491C33.7974 37.0088 33.8396 36.9333 33.8396 36.8521L33.8792 28.9863C33.8838 28.9128 33.8442 28.7908 33.7776 28.7491L27.282 24.7233C27.2146 24.6817 27.1308 24.681 27.0635 24.7219L20.6741 28.5883L14.4022 24.7011V17.1987L20.7547 13.3969L27.0912 17.2577C27.1051 17.273 27.1209 17.2861 27.1381 17.2965C27.1717 17.3173 27.2094 17.327 27.247 17.327C27.2846 17.327 27.3216 17.3166 27.3552 17.2965L33.8759 13.3546C33.9432 13.3137 33.9848 13.2388 33.9848 13.157L34 5.2468C34 5.16496 33.9723 5.13306 33.905 5.09214V5.09492ZM33.406 36.719L27.3209 40.3578L27.3579 32.9976L28.7234 32.1779L33.443 29.3511L33.4053 36.7183L33.406 36.719ZM27.1704 25.1852L33.2351 28.944L28.4963 31.7888L27.1394 32.6016L21.0767 28.8733L27.1711 25.1852H27.1704ZM20.8853 29.2887L26.9236 33.0018L26.886 40.3765L20.8477 36.6683L20.8853 29.2887ZM20.5336 13.0051L14.4187 16.6647L14.4359 13.2499L14.4557 9.30869L20.5474 5.65666L20.5336 13.0051ZM14.2834 1.49214L20.3184 5.23224L14.2326 8.8794L8.20295 5.1719L14.2834 1.49214ZM14.0214 9.29412L13.9944 14.6335L13.9845 16.619L7.92179 12.9045L7.95875 5.57136L14.0214 9.29481V9.29412ZM7.4565 28.4211L1.44003 24.774V17.438L7.4565 21.0949V28.4211ZM1.66904 17.0025L7.68486 13.3165L13.7126 17.0184L7.704 20.6663L1.66904 17.0032V17.0025ZM13.9673 17.4442V24.7199L7.95083 28.3608V21.1018L13.9673 17.4449V17.4442ZM13.8947 40.2344L7.8921 36.5477L7.92905 29.2194L13.9317 32.9109L13.8947 40.2344ZM20.389 36.6288L14.389 40.2219L14.426 32.895L20.426 29.2929L20.389 36.6288ZM20.2372 28.8497L14.1811 32.4809L8.19503 28.7998L14.2425 25.1339L20.2372 28.8497ZM27.0305 16.6946L20.9691 13.0016L21.0061 5.68163L27.0444 9.36L27.0305 16.6946ZM27.2622 8.93211L21.2094 5.23986L27.2615 1.53999L33.3209 5.26552L27.2622 8.9328V8.93211ZM33.5505 13.0266L27.4648 16.7057L27.478 9.76085V9.34822L33.5651 5.66152L33.5512 13.0266H33.5505Z" fill="white"/>
<path d="M33.905 5.09492C33.872 5.07481 27.3711 1.07881 27.3711 1.07881C27.3037 1.0372 27.2199 1.0372 27.1519 1.07881L20.7679 4.98188L14.395 1.03165C14.3277 0.990036 14.2438 0.989342 14.1759 1.03026C14.1759 1.03026 7.66968 4.95552 7.638 4.97425C7.57068 5.01447 7.52646 5.07134 7.5258 5.15248L7.48686 12.9087L1.18065 16.7722C1.15755 16.7771 1.03545 16.8464 1.01829 16.8714C0.987274 16.9415 1.00509 17.1301 1.00509 17.1301V24.905C1.00509 24.9869 1.04667 25.0618 1.11399 25.1027L7.48488 28.9648C7.48752 28.9704 7.49214 28.9745 7.49544 28.9801L7.4565 36.6767C7.4565 36.7585 7.49742 36.8341 7.56408 36.875L13.9389 40.7899C13.9468 40.801 14.0432 40.8696 14.1415 40.8655C14.2478 40.8613 14.3461 40.7753 14.3659 40.76L20.5864 37.0352L26.9922 40.9688C27.0259 40.9896 27.0642 41 27.1018 41C27.1394 41 27.1843 40.9827 27.2094 40.9702C28.8989 40.1081 33.7301 37.0491 33.7301 37.0491C33.7974 37.0088 33.8396 36.9333 33.8396 36.8521L33.8792 28.9863C33.8838 28.9128 33.8442 28.7908 33.7776 28.7491L27.282 24.7233C27.2146 24.6817 27.1308 24.681 27.0635 24.7219L20.6741 28.5883L14.4022 24.7011V17.1987L20.7547 13.3969L27.0912 17.2577C27.1051 17.273 27.1209 17.2861 27.1381 17.2965C27.1717 17.3173 27.2094 17.327 27.247 17.327C27.2846 17.327 27.3216 17.3166 27.3552 17.2965L33.8759 13.3546C33.9432 13.3137 33.9848 13.2388 33.9848 13.157L34 5.2468C34 5.16496 33.9723 5.13306 33.905 5.09214V5.09492ZM33.406 36.719L27.3209 40.3578L27.3579 32.9976L28.7234 32.1779L33.443 29.3511L33.4053 36.7183L33.406 36.719ZM27.1704 25.1852L33.2351 28.944L28.4963 31.7888L27.1394 32.6016L21.0767 28.8733L27.1711 25.1852H27.1704ZM20.8853 29.2887L26.9236 33.0018L26.886 40.3765L20.8477 36.6683L20.8853 29.2887ZM20.5336 13.0051L14.4187 16.6647L14.4359 13.2499L14.4557 9.30869L20.5474 5.65666L20.5336 13.0051ZM14.2834 1.49214L20.3184 5.23224L14.2326 8.8794L8.20295 5.1719L14.2834 1.49214ZM14.0214 9.29412L13.9944 14.6335L13.9845 16.619L7.92179 12.9045L7.95875 5.57136L14.0214 9.29481V9.29412ZM7.4565 28.4211L1.44003 24.774V17.438L7.4565 21.0949V28.4211ZM1.66904 17.0025L7.68486 13.3165L13.7126 17.0184L7.704 20.6663L1.66904 17.0032V17.0025ZM13.9673 17.4442V24.7199L7.95083 28.3608V21.1018L13.9673 17.4449V17.4442ZM13.8947 40.2344L7.8921 36.5477L7.92905 29.2194L13.9317 32.9109L13.8947 40.2344ZM20.389 36.6288L14.389 40.2219L14.426 32.895L20.426 29.2929L20.389 36.6288ZM20.2372 28.8497L14.1811 32.4809L8.19503 28.7998L14.2425 25.1339L20.2372 28.8497ZM27.0305 16.6946L20.9691 13.0016L21.0061 5.68163L27.0444 9.36L27.0305 16.6946ZM27.2622 8.93211L21.2094 5.23986L27.2615 1.53999L33.3209 5.26552L27.2622 8.9328V8.93211ZM33.5505 13.0266L27.4648 16.7057L27.478 9.76085V9.34822L33.5651 5.66152L33.5512 13.0266H33.5505Z" stroke="white" mask="url(#path-1-outside-1_1493_1846)"/>
</svg>
