<svg width="21" height="20" viewBox="0 0 21 20" fill="none" xmlns="http://www.w3.org/2000/svg">
<path d="M6.63281 5.83333H4.96615V5H4.13281V3.33333H4.96615V2.5H6.63281V3.33333H7.46615V5H6.63281V5.83333Z" fill="#16A34A"/>
<path d="M4.96615 9.16659H5.79948V11.6666H4.96615V12.4999H2.46615V11.6666H1.63281V9.16659H2.46615V8.33325H4.96615V9.16659Z" fill="#16A34A"/>
<path d="M9.13314 6.66675H8.2998V7.50008H9.13314V6.66675Z" fill="#16A34A"/>
<path d="M14.1331 12.5H13.2998V13.3333H14.1331V12.5Z" fill="#16A34A"/>
<path d="M15.8001 6.66675H14.9668V7.50008H15.8001V6.66675Z" fill="#16A34A"/>
<path d="M8.30013 5.83325H7.4668V6.66658H8.30013V5.83325Z" fill="#16A34A"/>
<path d="M7.46615 10H6.63281V10.8333H7.46615V10Z" fill="#16A34A"/>
<path d="M14.1331 11.6667V9.16667H13.2998V8.33333H12.4665V7.5H9.96647V8.33333H9.13314V9.16667H8.2998V11.6667H9.13314V12.5H9.96647V13.3333H12.4665V12.5H13.2998V11.6667H14.1331ZM9.96647 11.6667V9.16667H12.4665V11.6667H9.96647Z" fill="#16A34A"/>
<path d="M14.9661 7.5H14.1328V8.33333H14.9661V7.5Z" fill="#16A34A"/>
<path d="M14.9661 13.3333H14.1328V14.1666H14.9661V13.3333Z" fill="#16A34A"/>
<path d="M18.3001 15.0001H19.1335V17.5001H18.3001V18.3334H15.8001V17.5001H14.9668V15.0001H15.8001V14.1667H18.3001V15.0001Z" fill="#16A34A"/>
<path d="M19.1331 4.16659V5.83325H18.2998V6.66659H16.6331V5.83325H15.7998V4.16659H16.6331V3.33325H18.2998V4.16659H19.1331Z" fill="#16A34A"/>
</svg>
