<svg width="500" height="500" viewBox="0 0 500 500" fill="none" xmlns="http://www.w3.org/2000/svg">
<mask id="path-1-outside-1_932_179" maskUnits="userSpaceOnUse" x="59" y="17" width="378" height="466" fill="black">
<rect fill="white" x="59" y="17" width="378" height="466"/>
<path d="M431.934 67.8868C431.564 67.6565 358.675 21.9023 358.675 21.9023C357.921 21.4259 356.981 21.4259 356.219 21.9023L284.64 66.5925L213.186 21.3624C212.431 20.8859 211.492 20.878 210.729 21.3465C210.729 21.3465 137.781 66.2908 137.426 66.5052C136.671 66.9657 136.175 67.6169 136.168 68.5459L135.731 157.355L65.0255 201.592C64.7665 201.648 63.3975 202.442 63.2051 202.728C62.8573 203.53 63.0571 205.69 63.0571 205.69V294.713C63.0571 295.65 63.5233 296.507 64.2781 296.976L135.709 341.197C135.739 341.261 135.791 341.308 135.828 341.372L135.391 429.498C135.391 430.435 135.85 431.3 136.597 431.769L208.073 476.594C208.162 476.721 209.242 477.507 210.345 477.46C211.536 477.412 212.639 476.427 212.861 476.252L282.605 433.603L354.428 478.643C354.805 478.881 355.235 479 355.656 479C356.078 479 356.581 478.801 356.862 478.659C375.806 468.788 429.973 433.762 429.973 433.762C430.728 433.301 431.202 432.436 431.202 431.507L431.646 341.444C431.698 340.602 431.254 339.204 430.506 338.728L357.677 292.632C356.922 292.156 355.982 292.148 355.227 292.616L283.589 336.886L213.268 292.378V206.476L284.492 162.945L355.538 207.151C355.693 207.325 355.871 207.476 356.063 207.595C356.441 207.833 356.863 207.945 357.284 207.945C357.706 207.945 358.12 207.826 358.498 207.595L431.609 162.46C432.364 161.992 432.83 161.134 432.83 160.197L433 69.6258C433 68.6888 432.689 68.3236 431.934 67.8551V67.8868ZM426.34 429.982L358.113 471.647L358.527 387.372L373.838 377.987L426.755 345.62L426.333 429.974L426.34 429.982ZM356.433 297.921L424.424 340.959L371.292 373.532L356.078 382.838L288.103 340.149L356.433 297.921ZM285.957 344.906L353.658 387.42L353.237 471.861L285.535 429.402L285.957 344.906ZM282.013 158.458L213.453 200.361L213.645 161.261L213.867 116.134L282.168 74.3188L282.013 158.458ZM211.936 26.635L279.6 69.4591L211.366 111.219L143.76 68.7683L211.936 26.635ZM208.998 115.968L208.694 177.103L208.583 199.837L140.608 157.307L141.022 73.3421L208.998 115.976V115.968ZM135.391 334.972L67.9336 293.212V209.215L135.391 251.086V334.972ZM70.5014 204.228L137.951 162.024L205.535 204.411L138.166 246.179L70.5014 204.236V204.228ZM208.391 209.287V292.592L140.934 334.281V251.166L208.391 209.295V209.287ZM207.577 470.233L140.275 428.021L140.689 344.112L207.991 386.38L207.577 470.233ZM280.392 428.95L213.12 470.091L213.534 386.197L280.806 344.953L280.392 428.95ZM278.69 339.879L210.789 381.457L143.672 339.307L211.477 297.333L278.69 339.879ZM354.857 200.703L286.896 158.419L287.311 74.6046L355.013 116.722L354.857 200.703ZM357.454 111.823L289.59 69.5464L357.447 27.1829L425.386 69.8402L357.454 111.831V111.823ZM427.961 158.704L359.726 200.83L359.874 121.312V116.587L428.123 74.3744L427.968 158.704H427.961Z"/>
</mask>
<path d="M431.934 67.8868C431.564 67.6565 358.675 21.9023 358.675 21.9023C357.921 21.4259 356.981 21.4259 356.219 21.9023L284.64 66.5925L213.186 21.3624C212.431 20.8859 211.492 20.878 210.729 21.3465C210.729 21.3465 137.781 66.2908 137.426 66.5052C136.671 66.9657 136.175 67.6169 136.168 68.5459L135.731 157.355L65.0255 201.592C64.7665 201.648 63.3975 202.442 63.2051 202.728C62.8573 203.53 63.0571 205.69 63.0571 205.69V294.713C63.0571 295.65 63.5233 296.507 64.2781 296.976L135.709 341.197C135.739 341.261 135.791 341.308 135.828 341.372L135.391 429.498C135.391 430.435 135.85 431.3 136.597 431.769L208.073 476.594C208.162 476.721 209.242 477.507 210.345 477.46C211.536 477.412 212.639 476.427 212.861 476.252L282.605 433.603L354.428 478.643C354.805 478.881 355.235 479 355.656 479C356.078 479 356.581 478.801 356.862 478.659C375.806 468.788 429.973 433.762 429.973 433.762C430.728 433.301 431.202 432.436 431.202 431.507L431.646 341.444C431.698 340.602 431.254 339.204 430.506 338.728L357.677 292.632C356.922 292.156 355.982 292.148 355.227 292.616L283.589 336.886L213.268 292.378V206.476L284.492 162.945L355.538 207.151C355.693 207.325 355.871 207.476 356.063 207.595C356.441 207.833 356.863 207.945 357.284 207.945C357.706 207.945 358.12 207.826 358.498 207.595L431.609 162.46C432.364 161.992 432.83 161.134 432.83 160.197L433 69.6258C433 68.6888 432.689 68.3236 431.934 67.8551V67.8868ZM426.34 429.982L358.113 471.647L358.527 387.372L373.838 377.987L426.755 345.62L426.333 429.974L426.34 429.982ZM356.433 297.921L424.424 340.959L371.292 373.532L356.078 382.838L288.103 340.149L356.433 297.921ZM285.957 344.906L353.658 387.42L353.237 471.861L285.535 429.402L285.957 344.906ZM282.013 158.458L213.453 200.361L213.645 161.261L213.867 116.134L282.168 74.3188L282.013 158.458ZM211.936 26.635L279.6 69.4591L211.366 111.219L143.76 68.7683L211.936 26.635ZM208.998 115.968L208.694 177.103L208.583 199.837L140.608 157.307L141.022 73.3421L208.998 115.976V115.968ZM135.391 334.972L67.9336 293.212V209.215L135.391 251.086V334.972ZM70.5014 204.228L137.951 162.024L205.535 204.411L138.166 246.179L70.5014 204.236V204.228ZM208.391 209.287V292.592L140.934 334.281V251.166L208.391 209.295V209.287ZM207.577 470.233L140.275 428.021L140.689 344.112L207.991 386.38L207.577 470.233ZM280.392 428.95L213.12 470.091L213.534 386.197L280.806 344.953L280.392 428.95ZM278.69 339.879L210.789 381.457L143.672 339.307L211.477 297.333L278.69 339.879ZM354.857 200.703L286.896 158.419L287.311 74.6046L355.013 116.722L354.857 200.703ZM357.454 111.823L289.59 69.5464L357.447 27.1829L425.386 69.8402L357.454 111.831V111.823ZM427.961 158.704L359.726 200.83L359.874 121.312V116.587L428.123 74.3744L427.968 158.704H427.961Z" fill="#22C55E"/>
<path d="M431.934 67.8868C431.564 67.6565 358.675 21.9023 358.675 21.9023C357.921 21.4259 356.981 21.4259 356.219 21.9023L284.64 66.5925L213.186 21.3624C212.431 20.8859 211.492 20.878 210.729 21.3465C210.729 21.3465 137.781 66.2908 137.426 66.5052C136.671 66.9657 136.175 67.6169 136.168 68.5459L135.731 157.355L65.0255 201.592C64.7665 201.648 63.3975 202.442 63.2051 202.728C62.8573 203.53 63.0571 205.69 63.0571 205.69V294.713C63.0571 295.65 63.5233 296.507 64.2781 296.976L135.709 341.197C135.739 341.261 135.791 341.308 135.828 341.372L135.391 429.498C135.391 430.435 135.85 431.3 136.597 431.769L208.073 476.594C208.162 476.721 209.242 477.507 210.345 477.46C211.536 477.412 212.639 476.427 212.861 476.252L282.605 433.603L354.428 478.643C354.805 478.881 355.235 479 355.656 479C356.078 479 356.581 478.801 356.862 478.659C375.806 468.788 429.973 433.762 429.973 433.762C430.728 433.301 431.202 432.436 431.202 431.507L431.646 341.444C431.698 340.602 431.254 339.204 430.506 338.728L357.677 292.632C356.922 292.156 355.982 292.148 355.227 292.616L283.589 336.886L213.268 292.378V206.476L284.492 162.945L355.538 207.151C355.693 207.325 355.871 207.476 356.063 207.595C356.441 207.833 356.863 207.945 357.284 207.945C357.706 207.945 358.12 207.826 358.498 207.595L431.609 162.46C432.364 161.992 432.83 161.134 432.83 160.197L433 69.6258C433 68.6888 432.689 68.3236 431.934 67.8551V67.8868ZM426.34 429.982L358.113 471.647L358.527 387.372L373.838 377.987L426.755 345.62L426.333 429.974L426.34 429.982ZM356.433 297.921L424.424 340.959L371.292 373.532L356.078 382.838L288.103 340.149L356.433 297.921ZM285.957 344.906L353.658 387.42L353.237 471.861L285.535 429.402L285.957 344.906ZM282.013 158.458L213.453 200.361L213.645 161.261L213.867 116.134L282.168 74.3188L282.013 158.458ZM211.936 26.635L279.6 69.4591L211.366 111.219L143.76 68.7683L211.936 26.635ZM208.998 115.968L208.694 177.103L208.583 199.837L140.608 157.307L141.022 73.3421L208.998 115.976V115.968ZM135.391 334.972L67.9336 293.212V209.215L135.391 251.086V334.972ZM70.5014 204.228L137.951 162.024L205.535 204.411L138.166 246.179L70.5014 204.236V204.228ZM208.391 209.287V292.592L140.934 334.281V251.166L208.391 209.295V209.287ZM207.577 470.233L140.275 428.021L140.689 344.112L207.991 386.38L207.577 470.233ZM280.392 428.95L213.12 470.091L213.534 386.197L280.806 344.953L280.392 428.95ZM278.69 339.879L210.789 381.457L143.672 339.307L211.477 297.333L278.69 339.879ZM354.857 200.703L286.896 158.419L287.311 74.6046L355.013 116.722L354.857 200.703ZM357.454 111.823L289.59 69.5464L357.447 27.1829L425.386 69.8402L357.454 111.831V111.823ZM427.961 158.704L359.726 200.83L359.874 121.312V116.587L428.123 74.3744L427.968 158.704H427.961Z" stroke="#22C55E" stroke-width="8" mask="url(#path-1-outside-1_932_179)"/>
</svg>
