<svg width="21" height="20" viewBox="0 0 21 20" fill="none" xmlns="http://www.w3.org/2000/svg">
<g clip-path="url(#clip0_6_6739)">
<path d="M14.325 2.33968L13.1465 1.16117L12.5572 1.75042L11.3787 0.57191L10.7895 1.16117L10.2002 0.57191L9.61094 1.16117L9.02168 0.57191L7.84317 1.75042L7.25392 1.16117L6.07541 2.33968L5.48615 1.75042L1.95062 5.28596L2.53987 5.87521L1.36136 7.05372L1.95062 7.64298L0.772106 8.82149L1.36136 9.41074L0.772106 10L1.36136 10.5893L0.772107 11.1785L1.95062 12.357L1.36136 12.9463L2.53987 14.1248L1.95062 14.714L5.48615 18.2496L6.07541 17.6603L7.25392 18.8388L7.84317 18.2496L9.02168 19.4281L9.61094 18.8388L10.2002 19.4281L10.7895 18.8388L11.3787 19.4281L12.5572 18.2496L13.1465 18.8388L14.325 17.6603L14.9142 18.2496L18.4498 14.714L17.8605 14.1248L19.039 12.9463L18.4498 12.357L19.6283 11.1785L19.039 10.5893L19.6283 10L19.039 9.41074L19.6283 8.82149L18.4498 7.64298L19.039 7.05372L17.8605 5.87521L18.4498 5.28596L14.9142 1.75042L14.325 2.33968ZM17.2713 6.46447L16.682 7.05372L17.8605 8.23223L17.2713 8.82149L18.4498 10L17.2713 11.1785L17.8605 11.7678L16.682 12.9463L17.2713 13.5355L13.7357 17.0711L13.1465 16.4818L11.968 17.6603L11.3787 17.0711L10.2002 18.2496L9.02168 17.0711L8.43243 17.6603L7.25392 16.4818L6.66466 17.0711L3.12913 13.5355L3.71838 12.9463L2.53987 11.7678L3.12913 11.1785L1.95062 10L3.12913 8.82149L2.53987 8.23223L3.71838 7.05372L3.12913 6.46447L6.66466 2.92893L7.25392 3.51819L8.43243 2.33968L9.02168 2.92893L10.2002 1.75042L11.3787 2.92893L11.968 2.33968L13.1465 3.51819L13.7357 2.92893L17.2713 6.46447Z" fill="#EF4444"/>
<path d="M12.5572 6.46444L13.7357 7.64296L13.1465 8.23221L13.7357 8.82147L13.1465 9.41072L13.7357 9.99998L13.1465 10.5892L13.7357 11.1785L13.1465 11.7677L13.7357 12.357L13.1465 12.9463L10.7895 10.5892L7.25392 14.1248L6.07541 12.9463L9.61094 9.41072L7.25392 7.0537L7.84317 6.46444L8.43243 7.0537L9.02168 6.46444L9.61094 7.0537L10.2002 6.46444L10.7895 7.0537L11.3787 6.46444L11.968 7.0537L12.5572 6.46444Z" fill="#EF4444"/>
</g>
<defs>
<clipPath id="clip0_6_6739">
<rect width="20" height="20" fill="white" transform="translate(0.200195)"/>
</clipPath>
</defs>
</svg>
